<svg width="19" height="20" viewBox="0 0 19 20" fill="none" xmlns="http://www.w3.org/2000/svg">
<path d="M2.49618 1.87766L11.8621 1.15163C13.0122 1.04778 13.3082 1.11734 14.031 1.67013L17.0208 3.88211C17.5141 4.26248 17.6785 4.36604 17.6785 4.78068V16.9126C17.6785 17.6729 17.4154 18.1226 16.4954 18.1914L5.61888 18.8827C4.92833 18.9174 4.59965 18.8138 4.23802 18.3297L2.03635 15.3226C1.64184 14.7692 1.47778 14.355 1.47778 13.8706V3.08693C1.47778 2.46515 1.74097 1.94652 2.49618 1.87766Z" fill="white"/>
<path fill-rule="evenodd" clip-rule="evenodd" d="M11.8621 1.15163L2.49618 1.87766C1.74097 1.94652 1.47778 2.46515 1.47778 3.08693V13.8706C1.47778 14.355 1.64184 14.7692 2.03635 15.3226L4.23802 18.3297C4.59965 18.8138 4.92833 18.9174 5.61888 18.8827L16.4954 18.1914C17.4154 18.1226 17.6785 17.6729 17.6785 16.9126V4.78068C17.6785 4.38766 17.5308 4.27413 17.0953 3.93944C17.0713 3.92102 17.0465 3.90193 17.0208 3.88211L14.031 1.67013C13.3082 1.11734 13.0122 1.04778 11.8621 1.15163ZM5.8655 4.58168C4.97748 4.64482 4.7757 4.65915 4.27142 4.22791L2.98902 3.15648C2.85824 3.01793 2.92383 2.84511 3.25221 2.81082L12.2565 2.11949C13.0121 2.05021 13.4064 2.32717 13.7023 2.569L15.2466 3.74426C15.3124 3.77868 15.4764 3.9858 15.2792 3.9858L5.98011 4.57357C5.94099 4.57633 5.90305 4.57902 5.8663 4.58164L5.8655 4.58168ZM4.82972 16.8087V6.5092C4.82972 6.05995 4.96118 5.85242 5.3553 5.81755L16.035 5.16106C16.3972 5.12651 16.5612 5.36862 16.5612 5.81755V16.0479C16.5612 16.4976 16.4953 16.8784 15.9036 16.9126L5.68394 17.535C5.09251 17.5693 4.82972 17.3622 4.82972 16.8087ZM14.9185 7.06166C14.9841 7.37304 14.9185 7.68413 14.6222 7.71915L14.1298 7.82242V15.4262C13.7023 15.6681 13.308 15.8063 12.9795 15.8063C12.4536 15.8063 12.3218 15.6334 11.9278 15.1152L8.70697 9.79255V14.9424L9.72617 15.1845C9.72617 15.1845 9.72617 15.8063 8.90387 15.8063L6.63702 15.9448C6.57116 15.8063 6.63702 15.461 6.86696 15.3918L7.45852 15.2192V8.4102L6.63715 8.34091C6.57128 8.02951 6.73534 7.5806 7.19573 7.54571L9.62756 7.3732L12.9795 12.7652V7.99522L12.1249 7.89199C12.0593 7.51133 12.3218 7.23491 12.6505 7.20066L14.9185 7.06166Z" fill="#000008"/>
</svg>
